<svg xmlns="http://www.w3.org/2000/svg" viewBox="0 0 256 256" role="img" aria-label="Logo Medic Center">
  <defs>
    <linearGradient id="bg" x1="0" y1="0" x2="1" y2="1">
      <stop offset="0%" stop-color="#0ea5e9"/>
      <stop offset="100%" stop-color="#2563eb"/>
    </linearGradient>
    <linearGradient id="cross" x1="0" y1="0" x2="1" y2="1">
      <stop offset="0%" stop-color="#ffffff"/>
      <stop offset="100%" stop-color="#e2e8f0"/>
    </linearGradient>
  </defs>

  <rect x="12" y="12" width="232" height="232" rx="56" fill="url(#bg)"/>

  <path d="M128 58c33 0 60 27 60 60 0 45-41 71-54 79a12 12 0 0 1-12 0c-13-8-54-34-54-79 0-33 27-60 60-60z"
        fill="#ffffff" opacity="0.15"/>

  <g transform="translate(128 124)">
    <rect x="-20" y="-52" width="40" height="104" rx="12" fill="url(#cross)"/>
    <rect x="-52" y="-20" width="104" height="40" rx="12" fill="url(#cross)"/>
  </g>

  <circle cx="188" cy="188" r="22" fill="#22c55e"/>
  <path d="M178 188l7 7 13-13" fill="none" stroke="#ffffff" stroke-width="6" stroke-linecap="round" stroke-linejoin="round"/>
</svg>
